<?xml version="1.0" encoding="UTF-8" standalone="no"?>
<!-- Created with Inkscape (http://www.inkscape.org/) -->

<svg
   xmlns:dc="http://purl.org/dc/elements/1.1/"
   xmlns:cc="http://creativecommons.org/ns#"
   xmlns:rdf="http://www.w3.org/1999/02/22-rdf-syntax-ns#"
   xmlns:svg="http://www.w3.org/2000/svg"
   xmlns="http://www.w3.org/2000/svg"
   xmlns:xlink="http://www.w3.org/1999/xlink"
   xmlns:sodipodi="http://sodipodi.sourceforge.net/DTD/sodipodi-0.dtd"
   xmlns:inkscape="http://www.inkscape.org/namespaces/inkscape"
   width="349.05878mm"
   height="235.48404mm"
   viewBox="0 0 1236.8224 834.39226"
   id="svg2"
   version="1.1"
   inkscape:version="0.91 r13725"
   sodipodi:docname="docker-toolbox.svg">
  <defs
     id="defs4" />
  <sodipodi:namedview
     id="base"
     pagecolor="#ffffff"
     bordercolor="#666666"
     borderopacity="1.0"
     inkscape:pageopacity="0.0"
     inkscape:pageshadow="2"
     inkscape:zoom="0.49497475"
     inkscape:cx="245.03041"
     inkscape:cy="314.0642"
     inkscape:document-units="px"
     inkscape:current-layer="layer1"
     showgrid="false"
     fit-margin-top="0"
     fit-margin-left="0"
     fit-margin-right="0"
     fit-margin-bottom="0"
     inkscape:window-width="1676"
     inkscape:window-height="1011"
     inkscape:window-x="1280"
     inkscape:window-y="18"
     inkscape:window-maximized="0"
     showguides="false" />
  <metadata
     id="metadata7">
    <rdf:RDF>
      <cc:Work
         rdf:about="">
        <dc:format>image/svg+xml</dc:format>
        <dc:type
           rdf:resource="http://purl.org/dc/dcmitype/StillImage" />
        <dc:title></dc:title>
      </cc:Work>
    </rdf:RDF>
  </metadata>
  <g
     inkscape:label="Layer 1"
     inkscape:groupmode="layer"
     id="layer1"
     transform="translate(84.672087,-237.52654)">
    <rect
       style="color:#000000;clip-rule:nonzero;display:inline;overflow:visible;visibility:visible;opacity:1;isolation:auto;mix-blend-mode:normal;color-interpolation:sRGB;color-interpolation-filters:linearRGB;solid-color:#000000;solid-opacity:1;fill:#1b81a5;fill-opacity:1;fill-rule:nonzero;stroke:#364548;stroke-width:4.96328306;stroke-linecap:butt;stroke-linejoin:miter;stroke-miterlimit:4;stroke-dasharray:none;stroke-dashoffset:0;stroke-opacity:1;color-rendering:auto;image-rendering:auto;shape-rendering:auto;text-rendering:auto;enable-background:accumulate"
       id="rect4147"
       width="39.160835"
       height="388.90735"
       x="198.61752"
       y="317.44855" />
    <rect
       style="color:#000000;clip-rule:nonzero;display:inline;overflow:visible;visibility:visible;opacity:1;isolation:auto;mix-blend-mode:normal;color-interpolation:sRGB;color-interpolation-filters:linearRGB;solid-color:#000000;solid-opacity:1;fill:#1b81a5;fill-opacity:1;fill-rule:nonzero;stroke:#364548;stroke-width:4.96328306;stroke-linecap:butt;stroke-linejoin:miter;stroke-miterlimit:4;stroke-dasharray:none;stroke-dashoffset:0;stroke-opacity:1;color-rendering:auto;image-rendering:auto;shape-rendering:auto;text-rendering:auto;enable-background:accumulate"
       id="rect4147-3"
       width="39.160835"
       height="388.90735"
       x="650.50336"
       y="317.44855" />
    <rect
       style="color:#000000;clip-rule:nonzero;display:inline;overflow:visible;visibility:visible;opacity:1;isolation:auto;mix-blend-mode:normal;color-interpolation:sRGB;color-interpolation-filters:linearRGB;solid-color:#000000;solid-opacity:1;fill:#1b81a5;fill-opacity:1;fill-rule:nonzero;stroke:#364548;stroke-width:4.96328306;stroke-linecap:butt;stroke-linejoin:miter;stroke-miterlimit:4;stroke-dasharray:none;stroke-dashoffset:0;stroke-opacity:1;color-rendering:auto;image-rendering:auto;shape-rendering:auto;text-rendering:auto;enable-background:accumulate"
       id="rect4166-5"
       width="435.72165"
       height="36.958729"
       x="221.09698"
       y="337.92538" />
    <path
       style="color:#000000;font-style:normal;font-variant:normal;font-weight:normal;font-stretch:normal;font-size:medium;line-height:normal;font-family:sans-serif;text-indent:0;text-align:start;text-decoration:none;text-decoration-line:none;text-decoration-style:solid;text-decoration-color:#000000;letter-spacing:normal;word-spacing:normal;text-transform:none;direction:ltr;block-progression:tb;writing-mode:lr-tb;baseline-shift:baseline;text-anchor:start;white-space:normal;clip-rule:nonzero;display:inline;overflow:visible;visibility:visible;opacity:1;isolation:auto;mix-blend-mode:normal;color-interpolation:sRGB;color-interpolation-filters:linearRGB;solid-color:#000000;solid-opacity:1;fill:#37b1d9;fill-opacity:1;fill-rule:nonzero;stroke:#364548;stroke-width:5.9;stroke-linecap:butt;stroke-linejoin:miter;stroke-miterlimit:4;stroke-dasharray:none;stroke-dashoffset:0;stroke-opacity:1;color-rendering:auto;image-rendering:auto;shape-rendering:auto;text-rendering:auto;enable-background:accumulate"
       d="m 268.67334,297.98388 c -18.52147,4.30705 5.58731,37.25189 -7.82868,44.86347 -15.46397,8.77349 -40.31787,4.66371 -40.99844,-12.37635 -0.45426,-11.37425 4.28691,-28.93653 -13.76527,-28.9092 -18.05214,0.0273 -29.54598,39.02334 -26.74357,56.7431 2.80244,17.71976 21.69834,20.86022 32.74796,36.71558 11.04959,15.85535 15.18492,26.92134 31.00731,58.86853 15.82241,31.94719 34.54382,113.00826 61.97912,133.45872 27.43532,20.45045 35.28997,16.81562 48.82298,10.32016 13.53298,-6.49544 13.7117,-13.83954 12.76915,-34.90136 -0.94256,-21.06182 -29.11891,-62.31446 -38.97875,-83.53368 -9.8598,-21.21921 -16.63067,-35.72183 -20.24754,-43.7587 -3.61686,-8.03687 1.43036,4.34571 -1.88877,-4.31768 -3.31912,-8.66341 -16.50835,-32.11413 -15.91777,-48.201 0.5906,-16.08687 21.34848,-27.56143 18.03284,-43.87696 -3.31564,-16.31552 -20.46911,-45.40168 -38.99057,-41.09463 z"
       id="path4225"
       inkscape:connector-curvature="0"
       sodipodi:nodetypes="ssssssssssssssss" />
    <path
       style="fill:#37b1d9;fill-opacity:1;stroke:#364548;stroke-opacity:1;stroke-width:5.9;stroke-miterlimit:4;stroke-dasharray:none"
       d="m 413.94416,536.07462 c 1.83963,-12.22925 -5.79564,-23.32623 -5.47639,-31.58335 0.48826,-12.62834 -4.24415,-22.11687 -5.36378,-33.69631 -3.7801,-39.09481 -13.76717,-77.58148 -21.84997,-116.17647 -2.07123,-9.88996 -2.8691,-22.04459 -6.81401,-30.10394 -6.41573,-13.10711 -26.18422,-8.66696 -38.8008,-7.16234 -9.12887,1.08869 -26.78188,7.42572 -30.39981,-0.43779 -7.2453,-15.74753 -16.83921,-33.36711 -11.87986,-49.73209 3.40199,-11.22596 30.22382,-8.887 45.05107,-10.51646 12.95194,-1.42337 24.17446,8.53612 37.84189,5.92138 16.99618,-3.25155 20.15972,-19.53739 39.91325,-20.87716 19.35883,-1.31301 39.59218,-7.35248 58.13844,-2.01969 13.25885,3.81245 28.01156,9.31764 36.12913,18.26326 7.45535,8.21584 15.43905,18.15758 20.05315,28.20057 2.88754,6.28497 14.31676,19.34065 7.74473,22.00969 l -16.73731,6.79734 c -15.18897,6.16854 -21.93704,-23.79625 -40.02405,-25.29398 -14.73914,-1.2205 -32.09489,3.7439 -32.96948,18.7347 -0.98916,16.95475 1.27146,33.57749 4.34568,50.24369 8.39774,45.52647 17.9203,90.91387 24.69339,136.62779 1.8755,12.65836 11.01564,26.71539 4.26257,38.10525 -5.92785,9.99802 -25.05255,7.19607 -38.04148,6.13854 -8.25475,-0.67208 -31.91189,10.48781 -29.81636,-3.44263 z"
       id="path4270"
       inkscape:connector-curvature="0"
       sodipodi:nodetypes="sssssssssssssssssssssss" />
    <path
       style="fill:#37b1d9;fill-opacity:1;stroke:#364548;stroke-width:5.9000001;stroke-miterlimit:4;stroke-dasharray:none;stroke-opacity:1"
       d="m 537.47403,529.27021 -15.66616,-0.79642 c 9.26107,-10.16964 20.2984,-19.50594 26.88144,-31.17181 2.72911,-3.7152 6.51561,-6.27879 2.20058,-12.49799 -9.1634,-5.15208 -17.52626,-10.76818 -11.43168,-20.93205 0.82857,-12.73603 14.93664,-17.34343 26.26191,-22.31294 12.1736,-7.61681 12.86088,-21.69415 17.24689,-32.91384 6.74592,-9.02138 11.98522,-18.35746 20.54238,-25.01966 5.72187,-9.73785 14.70012,-17.75952 21.67138,-26.66546 3.61842,-4.70625 2.4091,-3.37431 7.28186,-8.31616 10.40862,-9.21994 10.26047,-15.17156 19.75119,-21.34944 5.36476,-6.29705 6.97301,-12.19445 15.53074,-18.49417 10.61152,-9.8604 28.25993,-13.53446 42.51834,-7.31437 12.47546,5.64622 22.65156,14.364 33.54294,21.92082 11.84034,8.40119 15.78238,24.5185 5.10599,34.88975 -20.20003,24.92724 -44.3176,47.34915 -64.44057,72.32331 -7.98862,7.84842 -15.9455,16.05878 -27.09221,20.75576 -17.40077,11.51845 -30.6029,27.87121 -36.2004,46.09067 -5.8929,6.9401 -17.89963,17.22562 -28.6072,13.11981 -7.21066,-2.35704 -16.60527,-7.93187 -22.13357,0.58976 -4.88072,6.17258 -5.40305,6.83413 -14.07012,15.70516 -4.51243,4.55229 -12.90824,2.12942 -18.89373,2.38927 z"
       id="path4274"
       inkscape:connector-curvature="0"
       sodipodi:nodetypes="cccccccccccccccccccccc" />
    <rect
       style="color:#000000;clip-rule:nonzero;display:inline;overflow:visible;visibility:visible;opacity:1;isolation:auto;mix-blend-mode:normal;color-interpolation:sRGB;color-interpolation-filters:linearRGB;solid-color:#000000;solid-opacity:1;fill:#1b81a5;fill-opacity:1;fill-rule:nonzero;stroke:#364548;stroke-width:4.96328306;stroke-linecap:butt;stroke-linejoin:miter;stroke-miterlimit:4;stroke-dasharray:none;stroke-dashoffset:0;stroke-opacity:1;color-rendering:auto;image-rendering:auto;shape-rendering:auto;text-rendering:auto;enable-background:accumulate"
       id="rect4166"
       width="434.60892"
       height="58.925362"
       x="228.56407"
       y="524.34204" />
    <rect
       style="color:#000000;clip-rule:nonzero;display:inline;overflow:visible;visibility:visible;opacity:1;isolation:auto;mix-blend-mode:normal;color-interpolation:sRGB;color-interpolation-filters:linearRGB;solid-color:#000000;solid-opacity:1;fill:#1b81a5;fill-opacity:1;fill-rule:nonzero;stroke:#364548;stroke-width:4.96328306;stroke-linecap:butt;stroke-linejoin:miter;stroke-miterlimit:4;stroke-dasharray:none;stroke-dashoffset:0;stroke-opacity:1;color-rendering:auto;image-rendering:auto;shape-rendering:auto;text-rendering:auto;enable-background:accumulate"
       id="rect4166-6"
       width="434.60892"
       height="58.925362"
       x="228.56407"
       y="585.55896" />
    <rect
       style="color:#000000;clip-rule:nonzero;display:inline;overflow:visible;visibility:visible;opacity:1;isolation:auto;mix-blend-mode:normal;color-interpolation:sRGB;color-interpolation-filters:linearRGB;solid-color:#000000;solid-opacity:1;fill:#1b81a5;fill-opacity:1;fill-rule:nonzero;stroke:#364548;stroke-width:4.96328306;stroke-linecap:butt;stroke-linejoin:miter;stroke-miterlimit:4;stroke-dasharray:none;stroke-dashoffset:0;stroke-opacity:1;color-rendering:auto;image-rendering:auto;shape-rendering:auto;text-rendering:auto;enable-background:accumulate"
       id="rect4166-7"
       width="434.60892"
       height="58.925362"
       x="228.56407"
       y="646.77588" />
    <path
       style="fill:#364548;fill-rule:evenodd;stroke:none;stroke-width:1"
       inkscape:connector-curvature="0"
       id="path8"
       d="m 741.40162,704.77436 56.065,0 c 25.89,0 52.5201,-4.61235 77.03878,-12.92034 12.0477,-4.08518 25.57042,-9.7701 37.4546,-16.91977 -15.65244,-20.43611 -23.6435,-46.24036 -25.99645,-71.67587 -3.1944,-34.59525 3.78395,-79.62545 27.19888,-106.70225 l 11.6556,-13.48128 13.88896,11.16473 c 34.96922,28.09484 64.37811,67.3518 69.56181,112.1041 42.106,-12.38534 91.5407,-9.45585 128.6552,11.9646 l 15.2264,8.78579 -8.0144,15.64207 c -31.388,61.2591 -97.0075,80.23571 -161.16239,76.8777 -95.99974,239.10489 -305.00228,352.30496 -558.41684,352.30496 -130.9223,0 -251.04092,-48.9414 -319.44189,-165.09938 l -1.12196,-1.89587 -9.964846,-20.27523 C 70.906594,833.51771 63.227114,777.50462 68.436754,721.53833 l 1.56342,-16.76397 94.815576,0"
       sodipodi:nodetypes="cscccccccccscscccccc" />
    <path
       style="fill:#22a0c8;fill-rule:evenodd;stroke:none;stroke-width:1"
       inkscape:connector-curvature="0"
       id="path10"
       d="m 989.75971,633.35817 c 7.4353,-57.77911 -35.80545,-103.16509 -62.62258,-124.71276 -30.90226,35.72754 -35.70417,129.36409 12.77746,168.78728 -27.05606,24.03302 -84.07153,45.81701 -142.44797,45.81701 l -710.621956,0 c -5.67718,60.93977 5.02266,117.05673 29.455656,165.09174 l 8.08464,14.78495 c 5.11878,8.68705 10.71021,17.07039 16.75354,25.14202 l 0.004,0 c 29.21419,1.87509 56.15075,2.52436 80.79411,1.97892 l 0.0107,0 c 48.42976,-1.07258 87.94378,-6.78609 117.89295,-17.16395 4.4591,-1.55034 9.31821,0.81551 10.86084,5.26942 1.54004,4.45401 -0.81807,9.31579 -5.27202,10.86088 -3.98127,1.37902 -8.13392,2.66982 -12.42165,3.89565 -0.005,0 -0.0107,0 -0.0196,0 -23.58119,6.7315 -48.86599,11.2633 -81.49267,13.276 1.93471,0.029 -2.01793,0.291 -2.02832,0.2935 -1.10896,0.067 -2.50614,0.2259 -3.62035,0.2879 -12.83972,0.7194 -26.70016,0.87 -40.86969,0.87 -15.49655,0 -30.75942,-0.2934 -47.82202,-1.1582 l -0.43642,0.288 c 59.21011,66.54927 151.78957,106.46327 267.83609,106.46327 245.60254,0 453.92459,-108.87337 546.17169,-353.29956 65.44816,6.71595 128.34606,-9.97267 156.95766,-65.82476 -45.5756,-26.30026 -104.1805,-17.91439 -137.92656,-0.9531" />
    <path
       style="fill:#37b1d9;fill-rule:evenodd;stroke:none;stroke-width:1"
       inkscape:connector-curvature="0"
       id="path12"
       d="m 989.75971,633.35817 c 7.4353,-57.77911 -35.80545,-103.16509 -62.62258,-124.71276 -30.90226,35.72754 -35.70417,129.36409 12.77746,168.78728 -27.05606,24.03302 -84.07153,45.81701 -142.44797,45.81701 l -668.542,0 c -2.90094,93.32746 31.73326,164.16971 93.01056,206.99763 l 0.0107,0 c 48.42976,-1.07258 87.94378,-6.78609 117.89294,-17.16395 4.4591,-1.55034 9.31822,0.81551 10.86084,5.26942 1.54005,4.45401 -0.81806,9.31579 -5.27203,10.86088 -3.98126,1.37902 -8.13389,2.66982 -12.42163,3.89565 -0.005,0 -0.0107,0 -0.0194,0 -23.58119,6.7315 -51.03977,11.845 -83.66645,13.8577 -0.005,0 -0.7895,-0.7557 -0.79987,-0.753 83.5833,42.8745 204.78225,42.7212 343.73465,-10.65574 155.80702,-59.85418 300.7871,-173.89046 401.94969,-304.31939 -1.5269,0.68825 -3.0125,1.39462 -4.4486,2.11402" />
    <g
       id="g5565"
       transform="matrix(29.013432,0,0,29.013432,-3449.1945,-2635.5099)"
       style="fill:#364548;fill-opacity:1;stroke:none;stroke-opacity:1"
       inkscape:export-xdpi="176.39999"
       inkscape:export-ydpi="176.39999">
      <g
         style="fill:#364548;fill-opacity:1;stroke:none;stroke-opacity:1"
         id="g4835">
        <use
           xlink:href="#glyph0-1"
           x="121.577"
           y="115.199"
           id="use4837"
           width="100%"
           height="100%"
           style="fill:#364548;fill-opacity:1;stroke:none;stroke-opacity:1" />
      </g>
      <g
         style="fill:#364548;fill-opacity:1;stroke:none;stroke-opacity:1"
         id="g4839">
        <use
           xlink:href="#glyph1-1"
           x="124.217"
           y="113.157"
           id="use4841"
           width="100%"
           height="100%"
           style="fill:#364548;fill-opacity:1;stroke:none;stroke-opacity:1" />
      </g>
      <g
         style="fill:#364548;fill-opacity:1;stroke:none;stroke-opacity:1"
         id="g4843">
        <use
           xlink:href="#glyph0-2"
           x="128.603"
           y="115.199"
           id="use4845"
           width="100%"
           height="100%"
           style="fill:#364548;fill-opacity:1;stroke:none;stroke-opacity:1" />
      </g>
      <g
         style="fill:#364548;fill-opacity:1;stroke:none;stroke-opacity:1"
         id="g4847">
        <use
           xlink:href="#glyph0-3"
           x="134.138"
           y="117.344"
           id="use4849"
           width="100%"
           height="100%"
           style="fill:#364548;fill-opacity:1;stroke:none;stroke-opacity:1" />
      </g>
      <g
         style="fill:#364548;fill-opacity:1;stroke:none;stroke-opacity:1"
         id="g4851">
        <use
           xlink:href="#glyph0-4"
           x="139.673"
           y="115.199"
           id="use4853"
           width="100%"
           height="100%"
           style="fill:#364548;fill-opacity:1;stroke:none;stroke-opacity:1" />
      </g>
    </g>
    <path
       style="fill:#1b81a5;fill-rule:evenodd;stroke:none;stroke-width:1"
       inkscape:connector-curvature="0"
       id="path14"
       d="m 88.174344,797.29151 c 4.41756,32.64232 13.964306,63.20698 28.125976,91.04993 l 8.08464,14.78495 c 5.11878,8.68705 10.71021,17.07039 16.7561,25.14202 29.21939,1.87509 56.15858,2.52436 80.80455,1.97892 48.42973,-1.07258 87.94376,-6.78609 117.89292,-17.16395 4.45912,-1.55034 9.31818,0.81551 10.86079,5.26942 1.54006,4.45401 -0.81804,9.31579 -5.27202,10.86088 -3.98122,1.37902 -8.13396,2.66982 -12.42163,3.89565 -0.005,0 -0.0107,0 -0.0196,0 -23.58117,6.7315 -50.8943,11.5541 -83.521,13.5695 -1.11933,0.067 -3.07234,0.08 -4.20204,0.143 -12.83461,0.722 -26.55219,1.1608 -40.72428,1.1608 -15.49399,0 -31.33855,-0.2957 -48.39858,-1.1608 59.20752,66.54927 152.3661,106.60877 268.41258,106.60877 210.25936,0 393.19017,-79.80727 499.36265,-256.14405 l -835.745096,0" />
    <path
       style="fill:#1d91b4;fill-rule:evenodd;stroke:none;stroke-width:1"
       inkscape:connector-curvature="0"
       id="path16"
       d="m 135.3211,797.29151 c 12.56974,57.31422 42.77596,102.31071 86.62451,132.95582 48.42973,-1.07258 87.94376,-6.78609 117.89292,-17.16395 4.45912,-1.55034 9.31818,0.81551 10.86079,5.26942 1.54006,4.45401 -0.81804,9.31579 -5.27202,10.86088 -3.98122,1.37902 -8.13396,2.66982 -12.42163,3.89565 -0.005,0 -0.0107,0 -0.0196,0 -23.58117,6.7315 -51.47351,11.5541 -84.10019,13.5695 83.57816,42.8666 204.42653,42.2513 343.36846,-11.12054 84.05601,-32.29432 164.95409,-80.37083 237.53369,-138.27192 l -694.47098,0" />
    <path
       style="fill:#d3ecec;fill-rule:evenodd;stroke:none;stroke-width:1"
       inkscape:connector-curvature="0"
       id="path36"
       d="m 384.26099,861.81257 c 14.63954,0 26.50799,11.87375 26.50799,26.51319 0,14.63965 -11.86845,26.50813 -26.50799,26.50813 -14.64218,0 -26.51326,-11.86848 -26.51326,-26.50813 0,-14.63944 11.87108,-26.51319 26.51326,-26.51319" />
    <path
       style="fill:#364548;fill-rule:evenodd;stroke:none;stroke-width:1"
       inkscape:connector-curvature="0"
       id="path38"
       d="m 384.26099,869.33365 c 2.42564,0 4.73958,0.45728 6.87436,1.28551 -2.31396,1.33744 -3.88001,3.84365 -3.88001,6.71075 0,4.27999 3.46969,7.74444 7.74962,7.74444 2.93206,0 5.47981,-1.62837 6.7965,-4.03332 0.92973,2.24133 1.44656,4.70328 1.44656,7.28473 0,10.48437 -8.5002,18.9845 -18.98703,18.9845 -10.48425,0 -18.98961,-8.50013 -18.98961,-18.9845 0,-10.4894 8.50536,-18.99211 18.98961,-18.99211" />
    <path
       style="fill:#364548;fill-rule:evenodd;stroke:none;stroke-width:1"
       inkscape:connector-curvature="0"
       id="path40"
       d="m -84.672087,806.87466 1233.277387,0 c -26.8532,-6.81208 -84.9622,-16.01343 -75.3791,-51.20601 -48.8271,56.50135 -166.58235,39.63874 -196.30033,11.77763 -33.09422,47.99861 -225.75083,29.75432 -239.18802,-7.63794 -41.48782,48.68948 -170.04677,48.68948 -211.53714,0 -13.44241,37.39226 -206.09642,55.63655 -239.1932,7.63794 C 157.28949,795.30739 39.544666,812.17 -9.2876287,755.66865 0.29544426,790.86123 -57.813447,800.06258 -84.672087,806.87466" />
    <path
       style="fill:#bdd9d7;fill-rule:evenodd;stroke:none;stroke-width:1"
       inkscape:connector-curvature="0"
       id="path42"
       d="m 454.73707,1052.8615 c -65.65601,-31.1567 -101.69516,-73.50937 -121.74698,-119.74699 -24.38623,6.96252 -53.70435,11.41142 -87.76715,13.32282 -12.83203,0.7193 -26.32892,1.0881 -40.49579,1.0881 -16.33022,0 -33.53823,-0.483 -51.60327,-1.4413 60.20993,60.17347 134.28283,106.50477 271.43289,107.35147 10.12586,0 20.17907,-0.1978 30.1803,-0.5741" />
    <path
       style="fill:#d3ecec;fill-rule:evenodd;stroke:none;stroke-width:1"
       inkscape:connector-curvature="0"
       id="path44"
       d="m 357.37897,975.77863 c -9.08443,-12.3308 -17.89627,-27.8273 -24.3733,-42.6693 -24.39144,6.9653 -53.71471,11.4166 -87.78273,13.328 23.39934,12.7021 56.86749,24.472 112.15603,29.3413" />
  </g>
</svg>
